<svg id="visual" viewBox="0 0 900 600" width="900" height="600" xmlns="http://www.w3.org/2000/svg" xmlns:xlink="http://www.w3.org/1999/xlink" version="1.1"><rect x="0" y="0" width="900" height="600" fill="#002233"></rect><path d="M0 441L21.5 442.8C43 444.7 86 448.3 128.8 460.3C171.7 472.3 214.3 492.7 257.2 488.7C300 484.7 343 456.3 385.8 457.2C428.7 458 471.3 488 514.2 479.3C557 470.7 600 423.3 642.8 410.7C685.7 398 728.3 420 771.2 430.8C814 441.7 857 441.3 878.5 441.2L900 441L900 601L878.5 601C857 601 814 601 771.2 601C728.3 601 685.7 601 642.8 601C600 601 557 601 514.2 601C471.3 601 428.7 601 385.8 601C343 601 300 601 257.2 601C214.3 601 171.7 601 128.8 601C86 601 43 601 21.5 601L0 601Z" fill="#0066FF" stroke-linecap="round" stroke-linejoin="miter"></path></svg>